<svg xmlns="http://www.w3.org/2000/svg" version="1.1" xmlns:xlink="http://www.w3.org/1999/xlink" xmlns:svgjs="http://svgjs.dev/svgjs" width="1440" height="560" preserveAspectRatio="none" viewBox="0 0 1440 560"><g mask="url(&quot;#SvgjsMask1000&quot;)" fill="none"><rect width="1440" height="560" x="0" y="0" fill="#0e2a47"></rect><path d="M218.99 634.59C367.52 607.16 430.43 238.93 671.07 233.79 911.7 228.65 897.1 303.79 1123.14 303.79 1349.18 303.79 1460.85 234 1575.22 233.79" stroke="rgba(51,121,194,0.58)" stroke-width="2"></path><path d="M315.75 667.48C478.3 661.38 590.53 407.96 908.81 399.82 1227.09 391.68 1345.74 206.34 1501.87 203.82" stroke="rgba(51,121,194,0.58)" stroke-width="2"></path><path d="M256.52 647.62C384.65 639.77 477.6 402.33 707.19 401.51 936.78 400.69 932.53 471.51 1157.86 471.51 1383.19 471.51 1494.51 401.72 1608.53 401.51" stroke="rgba(51,121,194,0.58)" stroke-width="2"></path><path d="M368.26 654.53C577.57 620.28 680.75 113.87 1019.08 110.28 1357.4 106.69 1501.5 282.4 1669.89 283.88" stroke="rgba(51,121,194,0.58)" stroke-width="2"></path><path d="M313.85 659.28C428.63 651.06 508.72 428.59 711.7 427.78 914.68 426.97 910.62 497.78 1109.55 497.78 1308.47 497.78 1406.41 428.05 1507.4 427.78" stroke="rgba(51,121,194,0.58)" stroke-width="2"></path></g><defs><mask id="SvgjsMask1000"><rect width="1440" height="560" fill="#ffffff"></rect></mask></defs></svg>