<svg xmlns="http://www.w3.org/2000/svg" version="1.1" xmlns:xlink="http://www.w3.org/1999/xlink" xmlns:svgjs="http://svgjs.dev/svgjs" width="1440" height="560" preserveAspectRatio="none" viewBox="0 0 1440 560"><g mask="url(&quot;#SvgjsMask1096&quot;)" fill="none"><rect width="1440" height="560" x="0" y="0" fill="#0e2a47"></rect><path d="M -207.20811427395472,260 C -63.21,269.2 224.79,309.6 512.7918857260453,306 C 800.79,302.4 944.79,228.4 1232.7918857260452,242 C 1520.79,255.6 1911.35,377.8 1952.7918857260452,374 C 1994.23,370.2 1542.56,253.2 1440,223" stroke="rgba(51, 121, 194, 0.58)" stroke-width="2"></path><path d="M -951.2688699791632,337 C -807.27,294.4 -519.27,132.6 -231.26886997916324,124 C 56.73,115.4 200.73,279.2 488.73113002083676,294 C 776.73,308.8 1018.48,196.8 1208.7311300208366,198 C 1398.98,199.2 1393.75,279.6 1440,300" stroke="rgba(51, 121, 194, 0.58)" stroke-width="2"></path><path d="M -1131.2986922144937,245 C -987.3,266.8 -699.3,362.8 -411.2986922144936,354 C -123.3,345.2 20.7,200 308.7013077855064,201 C 596.7,202 802.44,365.2 1028.7013077855063,359 C 1254.96,352.8 1357.74,207.8 1440,170" stroke="rgba(51, 121, 194, 0.58)" stroke-width="2"></path></g><defs><mask id="SvgjsMask1096"><rect width="1440" height="560" fill="#ffffff"></rect></mask></defs></svg>